<svg width="30" height="30" viewBox="0 0 30 30" fill="none" xmlns="http://www.w3.org/2000/svg">
<rect x="6" y="7" width="18" height="4" fill="currentColor"/>
<path d="M24 5.5H22.75V3.8C22.75 3.35817 22.3918 3 21.95 3H21.05C20.6082 3 20.25 3.35817 20.25 3.8V5.5H10.25V3.8C10.25 3.35817 9.89183 3 9.45 3H8.55C8.10817 3 7.75 3.35817 7.75 3.8V5.5H6.5C5.125 5.5 4 6.625 4 8V25.5C4 26.875 5.125 28 6.5 28H24C25.375 28 26.5 26.875 26.5 25.5V8C26.5 6.625 25.375 5.5 24 5.5ZM24 25.5H6.5V13H24V25.5ZM6.5 10.5V8H24V10.5H6.5ZM9 16.3C9 15.8582 9.35817 15.5 9.8 15.5H20.7C21.1418 15.5 21.5 15.8582 21.5 16.3V17.2C21.5 17.6418 21.1418 18 20.7 18H9.8C9.35817 18 9 17.6418 9 17.2V16.3ZM9 21.3C9 20.8582 9.35817 20.5 9.8 20.5H16.95C17.3918 20.5 17.75 20.8582 17.75 21.3V22.2C17.75 22.6418 17.3918 23 16.95 23H9.8C9.35817 23 9 22.6418 9 22.2V21.3Z" fill="#7F977B"/>
</svg>
