<svg width="50" height="50" viewBox="0 0 50 50" fill="none" xmlns="http://www.w3.org/2000/svg">
<rect width="50" height="50" rx="12" fill="#A8B8A5"/>
<path d="M40 34C40 34.5523 39.5523 35 39 35H21C20.4477 35 20 34.5523 20 34V32.6667C20 32.1144 20.4477 31.6667 21 31.6667H39C39.5523 31.6667 40 32.1144 40 32.6667V34ZM40 25.6667C40 26.219 39.5523 26.6667 39 26.6667H11C10.4477 26.6667 10 26.219 10 25.6667V24.3333C10 23.781 10.4477 23.3333 11 23.3333H39C39.5523 23.3333 40 23.781 40 24.3333V25.6667ZM40 17.3333C40 17.8856 39.5523 18.3333 39 18.3333H21C20.4477 18.3333 20 17.8856 20 17.3333V16C20 15.4477 20.4477 15 21 15H39C39.5523 15 40 15.4477 40 16V17.3333Z" fill="white"/>
</svg>
