<svg width="16" height="16" viewBox="0 0 16 16" fill="none" xmlns="http://www.w3.org/2000/svg">
<path d="M4.66667 7L6 7V8.33333H4.66667L4.66667 7ZM14 3.66667L14 13C14 13.7333 13.4 14.3333 12.6667 14.3333L3.33333 14.3333C2.97971 14.3333 2.64057 14.1929 2.39052 13.9428C2.14048 13.6928 2 13.3536 2 13L2.00667 3.66667C2.00667 2.93333 2.59333 2.33333 3.33333 2.33333H4V1L5.33333 1V2.33333L10.6667 2.33333V1L12 1V2.33333H12.6667C13.4 2.33333 14 2.93333 14 3.66667ZM3.33333 5L12.6667 5V3.66667L3.33333 3.66667L3.33333 5ZM12.6667 13L12.6667 6.33333L3.33333 6.33333L3.33333 13L12.6667 13ZM10 8.33333L11.3333 8.33333V7L10 7V8.33333ZM7.33333 8.33333H8.66667V7H7.33333V8.33333Z" fill="#7F977B"/>
</svg>
