<svg width="50" height="50" viewBox="0 0 50 50" fill="none" xmlns="http://www.w3.org/2000/svg">
<rect width="50" height="50" rx="12" fill="#A8B8A5"/>
<path d="M27.3495 24.9986L34.5103 17.8545C34.8238 17.5409 35 17.1156 35 16.6721C35 16.2286 34.8238 15.8033 34.5103 15.4897C34.1967 15.1762 33.7714 15 33.3279 15C32.8844 15 32.4591 15.1762 32.1455 15.4897L25.0014 22.6505L17.8573 15.4897C17.5437 15.1762 17.1184 15 16.675 15C16.2315 15 15.8062 15.1762 15.4926 15.4897C15.179 15.8033 15.0028 16.2286 15.0028 16.6721C15.0028 17.1156 15.179 17.5409 15.4926 17.8545L22.6534 24.9986L15.4926 32.1427C15.3365 32.2975 15.2126 32.4817 15.1281 32.6846C15.0435 32.8875 15 33.1052 15 33.3251C15 33.5449 15.0435 33.7626 15.1281 33.9655C15.2126 34.1684 15.3365 34.3526 15.4926 34.5074C15.6474 34.6635 15.8316 34.7874 16.0345 34.8719C16.2374 34.9565 16.4551 35 16.675 35C16.8948 35 17.1125 34.9565 17.3154 34.8719C17.5183 34.7874 17.7025 34.6635 17.8573 34.5074L25.0014 27.3466L32.1455 34.5074C32.3003 34.6635 32.4845 34.7874 32.6875 34.8719C32.8904 34.9565 33.1081 35 33.3279 35C33.5477 35 33.7654 34.9565 33.9683 34.8719C34.1713 34.7874 34.3554 34.6635 34.5103 34.5074C34.6663 34.3526 34.7902 34.1684 34.8748 33.9655C34.9593 33.7626 35.0028 33.5449 35.0028 33.3251C35.0028 33.1052 34.9593 32.8875 34.8748 32.6846C34.7902 32.4817 34.6663 32.2975 34.5103 32.1427L27.3495 24.9986Z" fill="white"/>
</svg>
