<svg width="80" height="80" viewBox="0 0 80 80" fill="none" xmlns="http://www.w3.org/2000/svg">
<circle cx="40" cy="40" r="40" fill="#7F977B" fill-opacity="0.2"/>
<path d="M7.53906 75.1999H53.3535C55.1578 75.1999 56.626 73.7305 56.626 71.9249V55.5499C56.626 55.5281 56.6151 55.5106 56.6129 55.4888C56.7329 55.4124 56.8573 55.3403 56.9751 55.2595L74.3977 72.6956C74.4981 72.8 74.6184 72.8834 74.7514 72.9408C74.8844 72.9981 75.0275 73.0285 75.1723 73.0299C75.3171 73.0314 75.4608 73.004 75.595 72.9493C75.7291 72.8946 75.851 72.8137 75.9535 72.7113C76.0561 72.609 76.1373 72.4872 76.1923 72.3531C76.2474 72.2191 76.2752 72.0753 76.2741 71.9304C76.2731 71.7855 76.2432 71.6422 76.1862 71.5089C76.1292 71.3756 76.0463 71.2551 75.9423 71.1542L58.6789 53.8775C60.0955 52.5547 61.2253 50.9547 61.998 49.1766C62.7707 47.3986 63.17 45.4805 63.1709 43.5416C63.1688 41.1591 62.5669 38.8156 61.4207 36.7275C60.2745 34.6394 58.621 32.874 56.6129 31.5944C56.6151 31.5726 56.626 31.5551 56.626 31.5333V26.0749C56.626 26.0378 56.6086 26.0072 56.6064 25.9723C56.602 25.9221 56.5889 25.8784 56.578 25.8304C56.5438 25.6787 56.4767 25.5364 56.3817 25.4134C56.3664 25.3937 56.3686 25.3697 56.3533 25.3501L38.9002 5.70005C38.8936 5.6935 38.8849 5.6935 38.8784 5.68695C38.7455 5.54734 38.5774 5.44625 38.3918 5.39439C38.3504 5.38129 38.3133 5.37692 38.2697 5.37037C38.2064 5.35945 38.1475 5.33325 38.0821 5.33325H7.53906C5.73485 5.33325 4.2666 6.80264 4.2666 8.60825V71.9249C4.2666 73.7305 5.73485 75.1999 7.53906 75.1999ZM60.9893 43.5416C60.9893 50.1636 55.605 55.5499 48.9903 55.5499C42.3755 55.5499 36.9912 50.1636 36.9912 43.5416C36.9912 36.9195 42.3755 31.5333 48.9903 31.5333C55.605 31.5333 60.9893 36.9195 60.9893 43.5416ZM39.1729 9.296L53.107 24.9833H40.2637C39.7837 24.9833 39.1729 24.0663 39.1729 23.3458V9.296ZM6.44824 8.60825C6.44824 8.31872 6.56317 8.04105 6.76774 7.83633C6.97231 7.6316 7.24976 7.51659 7.53906 7.51659H36.9912V23.3458C36.9912 25.1121 38.4202 27.1666 40.2637 27.1666H54.4444V30.4438C51.8092 29.3406 48.9018 29.0629 46.1057 29.6472C43.3096 30.2314 40.7562 31.6503 38.7824 33.7166H16.2656C15.9763 33.7166 15.6989 33.8316 15.4943 34.0363C15.2897 34.2411 15.1748 34.5187 15.1748 34.8083C15.1748 35.0978 15.2897 35.3755 15.4943 35.5802C15.6989 35.7849 15.9763 35.8999 16.2656 35.8999H37.061C35.7967 37.8667 35.0424 40.1179 34.8663 42.4499H16.2656C15.9763 42.4499 15.6989 42.5649 15.4943 42.7697C15.2897 42.9744 15.1748 43.2521 15.1748 43.5416C15.1748 43.8311 15.2897 44.1088 15.4943 44.3135C15.6989 44.5182 15.9763 44.6333 16.2656 44.6333H34.8641C35.0413 46.965 35.7955 49.216 37.0589 51.1833H16.2656C15.9763 51.1833 15.6989 51.2983 15.4943 51.503C15.2897 51.7077 15.1748 51.9854 15.1748 52.2749C15.1748 52.5644 15.2897 52.8421 15.4943 53.0468C15.6989 53.2516 15.9763 53.3666 16.2656 53.3666H38.6275C38.6733 53.3666 38.7125 53.3469 38.7584 53.3404C40.7315 55.4154 43.2879 56.8416 46.089 57.4303C48.8901 58.0191 51.8038 57.7425 54.4444 56.6372V71.9249C54.4444 72.2144 54.3294 72.4921 54.1249 72.6968C53.9203 72.9016 53.6429 73.0166 53.3535 73.0166H7.53906C6.9282 73.0166 6.44824 72.5363 6.44824 71.9249V8.60825Z" fill="#7F977B"/>
<path d="M16.2666 27.1667H29.3565C29.6458 27.1667 29.9232 27.0517 30.1278 26.847C30.3323 26.6423 30.4473 26.3646 30.4473 26.0751C30.4473 25.7855 30.3323 25.5079 30.1278 25.3031C29.9232 25.0984 29.6458 24.9834 29.3565 24.9834H16.2666C15.9773 24.9834 15.6998 25.0984 15.4953 25.3031C15.2907 25.5079 15.1758 25.7855 15.1758 26.0751C15.1758 26.3646 15.2907 26.6423 15.4953 26.847C15.6998 27.0517 15.9773 27.1667 16.2666 27.1667Z" fill="#7F977B"/>
<path d="M16.2666 62.0998H44.6279C44.9173 62.0998 45.1947 61.9848 45.3993 61.7801C45.6038 61.5754 45.7188 61.2977 45.7188 61.0082C45.7188 60.7186 45.6038 60.441 45.3993 60.2362C45.1947 60.0315 44.9173 59.9165 44.6279 59.9165H16.2666C15.9773 59.9165 15.6998 60.0315 15.4953 60.2362C15.2907 60.441 15.1758 60.7186 15.1758 61.0082C15.1758 61.2977 15.2907 61.5754 15.4953 61.7801C15.6998 61.9848 15.9773 62.0998 16.2666 62.0998Z" fill="#7F977B"/>
</svg>
