<svg width="118" height="30" viewBox="0 0 118 30" fill="none" xmlns="http://www.w3.org/2000/svg">
<path d="M0 0L7 0.46594L4.5 6.05722L0 0Z" fill="#6E7D60"/>
<path d="M3.85077 11.1826L8 0.931885" stroke="#6E7D60" stroke-width="1.33" stroke-linecap="round"/>
<path d="M9.86651 5.98769C9.86651 7.0826 10.8335 8.04879 12.1269 8.04879C13.4202 8.04879 14.3872 7.0826 14.3872 5.98769C14.3872 4.89279 13.4202 3.9266 12.1269 3.9266C10.8335 3.9266 9.86651 4.89279 9.86651 5.98769Z" stroke="#6E7D60" stroke-width="1.33"/>
<path d="M19.0746 11.0991C19.7986 11.607 20.4593 12.2048 20.9688 12.711C21.5593 13.2976 21.4575 14.2465 20.8001 14.757C20.2271 15.202 19.4159 15.1655 18.8851 14.6709L18.0461 13.889C17.7598 13.6222 17.4212 13.4178 17.0517 13.2887L15.6106 12.7851C15.2233 12.6497 14.8449 13.0083 14.9592 13.4022L17.8074 23.2226C18.1025 24.2402 17.5108 25.3031 16.4905 25.5883C15.4892 25.8682 14.4485 25.2939 14.1515 24.2976L12.9436 20.2454C12.8998 20.0985 12.7311 20.03 12.5973 20.1048L12.0957 20.3853C11.4085 20.7695 10.8837 21.3897 10.6186 22.131L10.1287 23.5004C9.81481 24.378 8.86497 24.8522 7.97488 24.5758C7.04289 24.2863 6.53139 23.2868 6.84168 22.3615L7.58187 20.1543C7.91679 19.1556 8.6307 18.3284 9.56974 17.8511L11.7567 16.7395C11.9713 16.6304 12.0779 16.3838 12.0102 16.1527L11.1675 13.2731C11.0942 13.0227 10.8189 12.8923 10.5787 12.994L8.26351 13.9747C7.46388 14.3134 6.55816 14.2974 5.77099 13.9306L4.3813 13.2831C3.79046 13.0078 3.49294 12.3391 3.68401 11.7159C3.90132 11.0071 4.66421 10.621 5.36406 10.8656L6.22689 11.1671C6.72987 11.3429 7.27974 11.3289 7.77313 11.1277L10.412 10.0518C12.0138 9.39881 13.7703 9.15452 15.4417 9.60004C16.6848 9.9314 18.1107 10.4229 19.0746 11.0991Z" stroke="#6E7D60" stroke-width="1.33"/>
<path d="M41.168 18.4397C41.7203 18.4397 42.168 18.8874 42.168 19.4397V21.2457C42.168 21.798 41.7203 22.2457 41.168 22.2457H34.016C33.4637 22.2457 33.016 21.798 33.016 21.2457V19.4397C33.016 18.8874 33.4637 18.4397 34.016 18.4397H41.168ZM30.332 24.6337C30.332 25.186 30.7797 25.6337 31.332 25.6337H32.576C32.819 25.6337 33.016 25.4367 33.016 25.1937C33.016 24.9507 33.213 24.7537 33.456 24.7537H41.739C41.9759 24.7537 42.168 24.9457 42.168 25.1827C42.168 25.4196 42.3601 25.6117 42.597 25.6117H43.984C44.5363 25.6117 44.984 25.164 44.984 24.6117V16.9537C44.984 16.4014 44.5363 15.9537 43.984 15.9537H31.332C30.7797 15.9537 30.332 16.4014 30.332 16.9537V24.6337ZM40.7119 8.23806C40.2948 8.55205 40.2483 9.14802 40.6355 9.49835C41.1653 9.97778 40.8628 10.8557 40.1489 10.8864C38.9166 10.9394 37.6906 10.991 36.4939 11.0389C35.6819 11.0713 35.1704 10.1691 35.5959 9.4768C36.0994 8.65786 36.5965 7.8103 37.064 6.97171C37.3674 6.42745 37.0907 5.74655 36.4975 5.55601L35.5205 5.24224C35.0161 5.08023 34.4741 5.34006 34.2648 5.82676C33.5776 7.42493 32.631 9.22849 31.6731 10.7724C31.4972 11.056 31.1876 11.227 30.854 11.2346C30.22 11.249 29.6121 11.2678 29.0368 11.2845C28.4704 11.3009 28.0274 11.7815 28.0604 12.3471L28.097 12.9738C28.1286 13.5171 28.5877 13.9354 29.1315 13.9147C33.0591 13.765 38.477 13.5463 43.686 13.2743C44.0041 13.2577 44.3125 13.3923 44.5083 13.6436C44.6759 13.8585 44.8325 14.0687 44.9771 14.2728C45.33 14.7712 46.0352 14.9159 46.5198 14.5442L47.1617 14.0518C47.5635 13.7437 47.6731 13.1821 47.3765 12.7717C46.2268 11.1805 44.3075 9.30442 42.5506 7.81042C42.1995 7.51192 41.689 7.5026 41.3209 7.7797L40.7119 8.23806Z" fill="#6E7D60"/>
<path d="M65.004 6.10867C65.004 5.76239 64.7233 5.48167 64.377 5.48167H61.803C61.4567 5.48167 61.176 5.76239 61.176 6.10867C61.176 6.45496 61.4567 6.73567 61.803 6.73567H64.377C64.7233 6.73567 65.004 6.45496 65.004 6.10867ZM55.1281 8.27099C55.4421 7.88278 55.4194 7.323 55.0283 7.01244C54.505 6.59679 53.8458 6.15913 53.2199 5.78238C52.8106 5.53604 52.2866 5.63541 51.9795 6.00125L51.7655 6.25614C51.37 6.72718 51.4899 7.4403 51.9955 7.79044C52.4241 8.08727 52.8494 8.40694 53.2213 8.71797C53.7021 9.12008 54.4569 9.10065 54.8511 8.61334L55.1281 8.27099ZM54.7055 13.9219C55.0191 13.5143 54.9708 12.9358 54.5535 12.6353C54.006 12.2412 53.3346 11.8351 52.6923 11.4935C52.2805 11.2744 51.776 11.3962 51.4884 11.7634L51.2809 12.0284C50.8988 12.5162 51.0478 13.2313 51.5716 13.5622C52.0095 13.8389 52.4476 14.1397 52.8311 14.4325C53.3215 14.807 54.0599 14.7611 54.4362 14.272L54.7055 13.9219ZM52.382 24.8387C52.9051 25.1327 53.5679 24.9031 53.7866 24.3443C54.4385 22.6794 55.0832 20.8395 55.6318 19.0737C55.7644 18.647 55.5923 18.1859 55.2157 17.9455L54.8825 17.7329C54.3283 17.3791 53.5889 17.6473 53.3751 18.2691C52.7565 20.0681 52.0393 21.8666 51.4338 23.2515C51.2249 23.7293 51.4065 24.2906 51.8611 24.5461L52.382 24.8387ZM63.618 14.3477C63.618 14.615 63.4013 14.8317 63.134 14.8317H63.002C62.7347 14.8317 62.518 14.615 62.518 14.3477C62.518 14.0804 62.7347 13.8637 63.002 13.8637H63.134C63.4013 13.8637 63.618 14.0804 63.618 14.3477ZM57.37 15.8446C57.37 16.0375 57.5263 16.1957 57.7192 16.1957H58.195C58.6506 16.1957 59.02 15.8263 59.02 15.3707V12.161C59.02 11.9663 59.1679 11.8034 59.3618 11.7846L59.4525 11.7758C59.5942 11.7621 59.7266 11.8748 59.7472 12.0157C59.773 12.1926 59.9505 12.2862 60.1182 12.2241L60.5185 12.0759C60.7874 11.9763 60.9533 11.7037 60.8929 11.4233C60.7907 10.9488 60.6248 10.3932 60.4256 9.88357C60.3116 9.59161 59.9829 9.45672 59.6879 9.56289L59.3518 9.68391C59.2177 9.73219 59.1462 9.87334 59.1928 10.0081C59.249 10.1706 59.13 10.3478 58.958 10.3518C58.7315 10.357 58.6027 10.0886 58.749 9.91563C59.179 9.40701 59.611 8.86138 60.0236 8.32725C60.1407 8.17577 60.384 8.25819 60.384 8.44961C60.384 8.5601 60.4736 8.64967 60.5841 8.64967H65.5663C65.6081 8.64967 65.642 8.61576 65.642 8.57393C65.642 8.50896 65.7182 8.4744 65.7664 8.51797C66.0779 8.79957 66.3768 9.10955 66.6313 9.4057C66.8309 9.63789 66.8155 9.98082 66.6168 10.2137C66.6062 10.2261 66.5957 10.2384 66.5852 10.2507C66.4618 10.395 66.2821 10.478 66.0922 10.482C65.6949 10.4905 65.3888 10.8351 65.4273 11.2306L65.4374 11.335C65.4779 11.752 65.8407 12.0624 66.2589 12.0381L67.0303 11.9933C67.232 11.9816 67.402 12.142 67.402 12.344C67.402 12.57 67.1918 12.7372 66.9717 12.6864L66.4404 12.5638C66.1828 12.5043 65.9271 12.6673 65.8645 12.9242C65.8414 13.0188 65.8174 13.1137 65.7924 13.2085C65.6821 13.6262 65.202 13.5363 65.202 13.1044C65.202 12.8798 65.0199 12.6977 64.7952 12.6977H62C61.4477 12.6977 61 13.1454 61 13.6977V14.9977C61 15.55 61.4477 15.9977 62 15.9977H64.916C65.074 15.9977 65.202 15.8696 65.202 15.7117C65.202 15.5048 65.4144 15.3679 65.5986 15.4622C65.7678 15.5489 65.9383 15.6428 66.0876 15.7325C66.2507 15.8306 66.4467 15.8274 66.5291 15.6558C66.6878 15.3253 67.402 15.3895 67.402 15.7562V15.8717C67.402 16.0506 67.5471 16.1957 67.726 16.1957H68.238C68.6997 16.1957 69.074 15.8214 69.074 15.3597V12.328C69.074 12.0773 69.267 11.8688 69.5171 11.8496L69.7178 11.8342C69.8407 11.8247 69.9562 11.9235 69.9832 12.0438C70.019 12.2032 70.1899 12.2816 70.3399 12.2166L70.8548 11.9935C71.1499 11.8656 71.3153 11.5469 71.2213 11.2394C71.075 10.7606 70.8625 10.2157 70.6266 9.71822C70.478 9.40475 70.1085 9.27513 69.7868 9.40495L69.3958 9.5627C69.2343 9.62788 69.1592 9.81021 69.2332 9.96792C69.3244 10.1623 69.1865 10.392 68.9718 10.3959L68.9493 10.3963C68.6736 10.4014 68.5246 10.0718 68.7071 9.86509C69.1428 9.37169 69.5821 8.84892 70.0006 8.33886C70.3003 7.9735 70.1943 7.42705 69.7821 7.19595C69.4149 6.99014 68.9503 7.12025 68.7185 7.47152C68.5668 7.70132 68.4007 7.93944 68.225 8.18272C68.1088 8.34368 67.8818 8.3581 67.7446 8.21458C67.6342 8.09912 67.6058 7.91287 67.6972 7.78189C67.9631 7.4009 68.2414 6.97293 68.5242 6.54135C68.7773 6.15497 68.6359 5.6311 68.2203 5.42943C67.8335 5.24169 67.3674 5.41251 67.1787 5.7989C66.9992 6.16635 66.7946 6.56508 66.5921 6.94032C66.544 7.02951 66.4275 7.05389 66.3472 6.9921C66.274 6.93581 66.1689 6.95042 66.1138 7.02453L65.8096 7.43407C65.7562 7.50596 65.642 7.46819 65.642 7.37864C65.642 7.3273 65.6004 7.28567 65.549 7.28567H60.5217C60.4457 7.28567 60.384 7.34732 60.384 7.42337C60.384 7.52888 60.2702 7.59519 60.1784 7.54318L59.5539 7.18929C59.2843 7.03654 58.9415 7.13346 58.7767 7.39579C58.648 7.60059 58.5071 7.8137 58.3594 8.03512C58.2494 8.2001 58.0081 8.22456 57.86 8.09263C57.7542 7.99833 57.7337 7.83881 57.8109 7.7199C58.0622 7.33253 58.333 6.90569 58.6056 6.46997C58.8416 6.09269 58.7015 5.59488 58.3046 5.39349C57.908 5.19223 57.4241 5.37292 57.2367 5.77625C57.0675 6.1404 56.8762 6.52382 56.6816 6.87959C56.6255 6.98202 56.4958 7.01534 56.3973 6.95265C56.3023 6.89225 56.1778 6.92122 56.1173 7.01608L55.8104 7.49717C55.586 7.8489 55.6732 8.31309 55.9921 8.58208C56.2367 8.78841 56.4795 9.00816 56.7051 9.22726C56.9702 9.4848 56.9841 9.90339 56.7503 10.1897C56.6102 10.3613 56.407 10.4578 56.1855 10.4651L56.0351 10.47C55.5805 10.4849 55.2349 10.884 55.2852 11.3361C55.3314 11.7525 55.6984 12.0588 56.1163 12.0289C56.3936 12.009 56.6795 11.9876 56.9708 11.9631C57.185 11.9451 57.37 12.1134 57.37 12.3285C57.37 12.5627 57.1525 12.7362 56.9242 12.6843L56.5719 12.6043C56.2136 12.5228 55.8606 12.7535 55.7717 13.11C55.6484 13.6041 55.4939 14.0967 55.2974 14.5484C55.1235 14.9482 55.2828 15.4478 55.6728 15.6426C55.7807 15.6964 55.8863 15.7509 55.9838 15.8029C56.1551 15.8943 56.35 15.8782 56.4385 15.7054C56.6237 15.3439 57.37 15.4385 57.37 15.8446ZM69.8698 12.6327C69.4793 12.7499 69.2763 13.1788 69.4178 13.5611C69.582 14.0046 69.7364 14.4681 69.8555 14.8928C69.9718 15.3075 70.4103 15.5669 70.8189 15.4307C71.1639 15.3157 71.3641 14.9565 71.257 14.609C71.1048 14.1148 70.9014 13.5511 70.6936 13.0257C70.5646 12.6996 70.2058 12.5319 69.8698 12.6327ZM61.022 11.5097C61.022 11.8377 61.2879 12.1037 61.616 12.1037H64.608C64.9361 12.1037 65.202 11.8377 65.202 11.5097C65.202 11.1816 64.9361 10.9157 64.608 10.9157H61.616C61.2879 10.9157 61.022 11.1816 61.022 11.5097ZM65.202 9.81567C65.202 9.48762 64.9361 9.22167 64.608 9.22167H61.616C61.2879 9.22167 61.022 9.48762 61.022 9.81567C61.022 10.1437 61.2879 10.4097 61.616 10.4097H64.608C64.9361 10.4097 65.202 10.1437 65.202 9.81567ZM60.3525 15.0184C60.6826 14.9249 60.8882 14.5963 60.8124 14.2617C60.73 13.8986 60.6265 13.4942 60.5157 13.1114C60.422 12.7875 60.0893 12.6009 59.7605 12.6758C59.394 12.7594 59.1731 13.1334 59.2636 13.4982C59.3444 13.8241 59.4199 14.1594 59.4825 14.4716C59.5623 14.8692 59.9623 15.129 60.3525 15.0184ZM59.8342 20.9037C59.6113 20.9037 59.4483 20.6933 59.504 20.4775C59.5428 20.3269 59.6787 20.2217 59.8342 20.2217H68.316C68.8683 20.2217 69.316 19.774 69.316 19.2217V17.5697C69.316 17.0174 68.8683 16.5697 68.316 16.5697H57.579C57.172 16.5697 56.842 16.8996 56.842 17.3067C56.842 17.7137 57.172 18.0437 57.579 18.0437H66.555C66.7433 18.0437 66.896 18.1963 66.896 18.3847C66.896 18.573 66.7433 18.7257 66.555 18.7257H58.327C57.848 18.7257 57.4376 19.0656 57.3345 19.5334C57.1776 20.2459 56.991 20.9869 56.7964 21.6628C56.6204 22.2738 57.0177 22.9173 57.6481 22.9998L58.4298 23.1021C58.632 23.1286 58.8223 23.0153 58.8821 22.8204C58.9373 22.6406 59.1048 22.5097 59.2929 22.5097H66.3145C66.9716 22.5097 67.5374 23.2672 67.006 23.6537C66.786 23.8077 66.522 23.8297 66.082 23.8297C65.7327 23.8297 65.0194 23.8208 64.2073 23.7805C63.6327 23.752 63.2199 24.4811 63.3658 25.0376C63.4534 25.372 63.7258 25.5983 64.0714 25.6078C65.2145 25.6393 66.2751 25.6524 66.874 25.6337C67.754 25.5897 68.37 25.4797 68.92 25.0617C69.514 24.5777 69.91 23.6097 70.262 21.8497C70.4041 21.3524 69.9548 20.9037 69.4376 20.9037H59.8342Z" fill="#6E7D60"/>
<path d="M85.574 20.3417C85.574 19.7894 86.0217 19.3417 86.574 19.3417H91.592C92.1443 19.3417 92.592 18.894 92.592 18.3417V18.0097C92.592 17.4574 92.1443 17.0097 91.592 17.0097H86.574C86.0217 17.0097 85.574 16.562 85.574 16.0097V15.3477C85.574 14.7954 86.0217 14.3477 86.574 14.3477H93.066C93.6183 14.3477 94.066 13.9 94.066 13.3477V12.9057C94.066 12.3534 93.6183 11.9057 93.066 11.9057H86.574C86.0217 11.9057 85.574 11.458 85.574 10.9057V10.7717C85.574 10.2194 86.0217 9.77167 86.574 9.77167H91.35C91.9023 9.77167 92.35 9.32396 92.35 8.77167V8.37367C92.35 7.82139 91.9023 7.37367 91.35 7.37367H86.574C86.0217 7.37367 85.574 6.92596 85.574 6.37367V6.12967C85.574 5.57739 85.1263 5.12967 84.574 5.12967H83.89C83.3377 5.12967 82.89 5.57739 82.89 6.12967V6.37367C82.89 6.92596 82.4423 7.37367 81.89 7.37367H77.51C76.9577 7.37367 76.51 7.82139 76.51 8.37367V8.77167C76.51 9.32396 76.9577 9.77167 77.51 9.77167H81.89C82.4423 9.77167 82.89 10.2194 82.89 10.7717V10.9057C82.89 11.458 82.4423 11.9057 81.89 11.9057H75.574C75.0217 11.9057 74.574 12.3534 74.574 12.9057V13.3477C74.574 13.9 75.0217 14.3477 75.574 14.3477H81.89C82.4423 14.3477 82.89 14.7954 82.89 15.3477V20.1314C82.89 20.8777 82.1026 21.3468 81.5343 20.8629C80.9017 20.3243 80.3461 19.6463 79.8904 18.7942C79.7771 18.5823 79.7576 18.3343 79.817 18.1014C79.9453 17.5985 80.0566 17.0918 80.1541 16.5906C80.2631 16.03 79.863 15.5036 79.2955 15.439L78.6393 15.3643C78.0852 15.3013 77.5891 15.7037 77.5075 16.2553C77.1589 18.6115 76.3717 21.1672 74.8609 22.9691C74.4108 23.506 74.4538 24.3991 74.9787 24.8631C75.0211 24.9007 75.0631 24.9383 75.1045 24.9759C75.502 25.3371 76.12 25.3933 76.4935 25.0073C77.0774 24.4038 77.5754 23.7027 78.0077 22.9343C78.3941 22.2475 79.4057 22.135 79.9756 22.6793C82.2206 24.8234 85.2525 25.3697 88.94 25.3697H92.897C93.3823 25.3697 93.7929 25.0366 93.9332 24.5721C94.1629 23.8113 93.606 22.8543 92.8114 22.8605C91.395 22.8716 89.745 22.8761 89.094 22.8617C88.165 22.8617 87.2609 22.8241 86.4008 22.7208C85.9203 22.663 85.574 22.2456 85.574 21.7616V20.3417Z" fill="#6E7D60"/>
<path d="M108.894 20.3417C108.894 19.7894 109.342 19.3417 109.894 19.3417H114.912C115.464 19.3417 115.912 18.894 115.912 18.3417V18.0097C115.912 17.4574 115.464 17.0097 114.912 17.0097H109.894C109.342 17.0097 108.894 16.562 108.894 16.0097V15.3477C108.894 14.7954 109.342 14.3477 109.894 14.3477H116.386C116.938 14.3477 117.386 13.9 117.386 13.3477V12.9057C117.386 12.3534 116.938 11.9057 116.386 11.9057H109.894C109.342 11.9057 108.894 11.458 108.894 10.9057V10.7717C108.894 10.2194 109.342 9.77167 109.894 9.77167H114.67C115.222 9.77167 115.67 9.32396 115.67 8.77167V8.37367C115.67 7.82139 115.222 7.37367 114.67 7.37367H109.894C109.342 7.37367 108.894 6.92596 108.894 6.37367V6.12967C108.894 5.57739 108.446 5.12967 107.894 5.12967H107.21C106.658 5.12967 106.21 5.57739 106.21 6.12967V6.37367C106.21 6.92596 105.762 7.37367 105.21 7.37367H100.83C100.278 7.37367 99.83 7.82139 99.83 8.37367V8.77167C99.83 9.32396 100.278 9.77167 100.83 9.77167H105.21C105.762 9.77167 106.21 10.2194 106.21 10.7717V10.9057C106.21 11.458 105.762 11.9057 105.21 11.9057H98.894C98.3417 11.9057 97.894 12.3534 97.894 12.9057V13.3477C97.894 13.9 98.3417 14.3477 98.894 14.3477H105.21C105.762 14.3477 106.21 14.7954 106.21 15.3477V20.1314C106.21 20.8777 105.423 21.3468 104.854 20.8629C104.222 20.3243 103.666 19.6463 103.21 18.7942C103.097 18.5823 103.078 18.3343 103.137 18.1014C103.265 17.5985 103.377 17.0918 103.474 16.5906C103.583 16.03 103.183 15.5036 102.615 15.439L101.959 15.3643C101.405 15.3013 100.909 15.7037 100.828 16.2553C100.479 18.6115 99.6917 21.1672 98.1809 22.9691C97.7308 23.506 97.7738 24.3991 98.2987 24.8631C98.3411 24.9007 98.3831 24.9383 98.4245 24.9759C98.822 25.3371 99.44 25.3933 99.8135 25.0073C100.397 24.4038 100.895 23.7027 101.328 22.9343C101.714 22.2475 102.726 22.135 103.296 22.6793C105.541 24.8234 108.573 25.3697 112.26 25.3697H116.217C116.702 25.3697 117.113 25.0366 117.253 24.5721C117.483 23.8113 116.926 22.8543 116.131 22.8605C114.715 22.8716 113.065 22.8761 112.414 22.8617C111.485 22.8617 110.581 22.8241 109.721 22.7208C109.24 22.663 108.894 22.2456 108.894 21.7616V20.3417Z" fill="#6E7D60"/>
</svg>
