<svg width="30" height="30" viewBox="0 0 30 30" fill="none" xmlns="http://www.w3.org/2000/svg">
<path fill-rule="evenodd" clip-rule="evenodd" d="M7.84804 14.2C7.84804 11.1072 10.3552 8.59999 13.448 8.59999C16.5408 8.59999 19.048 11.1072 19.048 14.2C19.048 17.2928 16.5408 19.8 13.448 19.8C10.3552 19.8 7.84804 17.2928 7.84804 14.2ZM13.448 7C9.47159 7 6.24805 10.2235 6.24805 14.2C6.24805 18.1764 9.47159 21.4 13.448 21.4C15.7098 21.4 17.7281 20.357 19.048 18.7258C19.0495 18.9286 19.1276 19.1309 19.2823 19.2856L22.7623 22.7656C23.0747 23.0781 23.5813 23.0781 23.8937 22.7656C24.2061 22.4532 24.2061 21.9467 23.8937 21.6343L20.4137 18.1543C20.1902 17.9308 19.8673 17.8672 19.5873 17.9635C20.26 16.8683 20.648 15.5795 20.648 14.2C20.648 10.2235 17.4245 7 13.448 7Z" fill="currentColor"/>
</svg>
