<svg width="24" height="24" viewBox="0 0 24 24" fill="none" xmlns="http://www.w3.org/2000/svg">
<path d="M19 10.1282C19.0023 9.03351 18.7383 7.9531 18.2284 6.97105C17.7185 5.98899 16.9766 5.13179 16.0604 4.46617C15.1441 3.80055 14.0783 3.34448 12.9458 3.13344C11.8134 2.92241 10.6449 2.96211 9.53124 3.24947C8.4176 3.53682 7.3889 4.06407 6.52522 4.79016C5.66154 5.51626 4.98617 6.42161 4.55171 7.43576C4.11724 8.4499 3.93541 9.54546 4.02034 10.6372C4.10526 11.7289 4.45466 12.7872 5.04134 13.7299V13.7299C5.33587 14.1889 5.69352 14.5181 6.09324 15.007L10.4796 20.4944C10.6063 20.6516 10.7694 20.779 10.9564 20.8667C11.1434 20.9544 11.3492 21 11.5578 21C11.7664 21 11.9722 20.9544 12.1592 20.8667C12.3462 20.779 12.5093 20.6516 12.636 20.4944L16.9172 15.1167C17.2917 14.6781 17.6428 14.2219 17.9691 13.7499V13.7499C18.6486 12.6521 19.0047 11.4012 19 10.1282V10.1282ZM11.5315 13.2311C10.8783 13.2311 10.2397 13.0473 9.69653 12.7031C9.15336 12.3588 8.73001 11.8696 8.48002 11.2971C8.23003 10.7247 8.16462 10.0948 8.29207 9.48706C8.41951 8.87935 8.73408 8.32114 9.196 7.883C9.65793 7.44487 10.2465 7.1465 10.8872 7.02562C11.5279 6.90474 12.192 6.96678 12.7955 7.2039C13.399 7.44101 13.9149 7.84256 14.2778 8.35774C14.6407 8.87293 14.8345 9.47863 14.8345 10.0982C14.8345 10.9291 14.4865 11.726 13.867 12.3135C13.2476 12.901 12.4075 13.2311 11.5315 13.2311V13.2311Z" fill="#E0DA48"/>
</svg>
