<svg width="16" height="16" viewBox="0 0 16 16" fill="none" xmlns="http://www.w3.org/2000/svg">
<path d="M3.04211 2.04201C4.34959 0.734532 6.1229 0 7.97195 0C9.821 0 11.5943 0.734532 12.9018 2.04201C14.2093 3.34948 14.9438 5.1228 14.9438 6.97185C14.9438 8.8209 14.2093 10.5942 12.9018 11.9017L11.9514 12.8417C11.2508 13.5287 10.342 14.4127 9.22423 15.4936C8.88828 15.8184 8.43926 16 7.97195 16C7.50465 16 7.05562 15.8184 6.71968 15.4936L3.92447 12.7744C3.57297 12.4294 3.27912 12.1387 3.04211 11.9017C2.39469 11.2543 1.88112 10.4858 1.53073 9.63988C1.18034 8.79402 1 7.88742 1 6.97185C1 6.05629 1.18034 5.14969 1.53073 4.30382C1.88112 3.45795 2.39469 2.68939 3.04211 2.04201ZM12.0523 2.89074C10.9699 1.80857 9.50195 1.2007 7.97139 1.20085C6.44082 1.201 4.97301 1.80916 3.89084 2.89154C2.80868 3.97392 2.20081 5.44185 2.20096 6.97242C2.20111 8.50298 2.80926 9.9708 3.89164 11.053L5.08147 12.2284C5.90336 13.0314 6.72753 13.8321 7.55399 14.6304C7.66599 14.7388 7.81572 14.7994 7.97155 14.7994C8.12739 14.7994 8.27712 14.7388 8.38911 14.6304L11.1067 11.9882C11.483 11.6191 11.7976 11.3076 12.0515 11.053C13.1336 9.97078 13.7415 8.50306 13.7415 6.97265C13.7415 5.44225 13.1336 3.97452 12.0515 2.89234L12.0523 2.89074ZM7.97195 4.78917C8.28761 4.78917 8.60017 4.85135 8.8918 4.97214C9.18343 5.09294 9.4484 5.26999 9.67161 5.49319C9.89481 5.71639 10.0719 5.98137 10.1927 6.273C10.3135 6.56462 10.3756 6.87719 10.3756 7.19284C10.3756 7.5085 10.3135 7.82106 10.1927 8.11269C10.0719 8.40431 9.89481 8.66929 9.67161 8.89249C9.4484 9.11569 9.18343 9.29275 8.8918 9.41354C8.60017 9.53434 8.28761 9.59651 7.97195 9.59651C7.34216 9.58502 6.74205 9.32676 6.30073 8.87731C5.85941 8.42786 5.61215 7.82314 5.61215 7.19324C5.61215 6.56335 5.85941 5.95862 6.30073 5.50917C6.74205 5.05972 7.34216 4.80147 7.97195 4.78997V4.78917ZM7.97195 5.99021C7.81402 5.99021 7.65764 6.02131 7.51173 6.08175C7.36582 6.14219 7.23324 6.23078 7.12156 6.34245C7.00989 6.45413 6.9213 6.5867 6.86087 6.73261C6.80043 6.87852 6.76932 7.03491 6.76932 7.19284C6.76932 7.35078 6.80043 7.50716 6.86087 7.65307C6.9213 7.79898 7.00989 7.93156 7.12156 8.04323C7.23324 8.15491 7.36582 8.24349 7.51173 8.30393C7.65764 8.36437 7.81402 8.39548 7.97195 8.39548C8.29081 8.39548 8.5966 8.26881 8.82206 8.04335C9.04753 7.81789 9.17419 7.5121 9.17419 7.19324C9.17419 6.87439 9.04753 6.5686 8.82206 6.34313C8.5966 6.11767 8.29081 5.99101 7.97195 5.99101V5.99021Z" fill="#646464"/>
</svg>
